<svg width="21" height="22" viewBox="0 0 21 22" fill="none" xmlns="http://www.w3.org/2000/svg">
<path d="M12.4239 10.5173L20.6009 2.34005C21.1331 1.80815 21.1331 0.94815 20.6009 0.416255C20.069 -0.11564 19.209 -0.11564 18.6771 0.416255L10.4999 8.59349L2.3229 0.416255C1.79076 -0.11564 0.931004 -0.11564 0.399108 0.416255C-0.133036 0.94815 -0.133036 1.80815 0.399108 2.34005L8.5761 10.5173L0.399108 18.6945C-0.133036 19.2264 -0.133036 20.0864 0.399108 20.6183C0.664184 20.8836 1.01272 21.0169 1.361 21.0169C1.70929 21.0169 2.05758 20.8836 2.3229 20.6183L10.4999 12.4411L18.6771 20.6183C18.9425 20.8836 19.2907 21.0169 19.639 21.0169C19.9873 21.0169 20.3356 20.8836 20.6009 20.6183C21.1331 20.0864 21.1331 19.2264 20.6009 18.6945L12.4239 10.5173Z" fill="#2F281E"/>
</svg>
